<?xml version="1.0" encoding="iso-8859-1"?>
<!-- Generator: Adobe Illustrator 19.0.0, SVG Export Plug-In . SVG Version: 6.00 Build 0)  -->
<svg version="1.1" id="Layer_1" xmlns="http://www.w3.org/2000/svg" xmlns:xlink="http://www.w3.org/1999/xlink" x="0px" y="0px"
	 viewBox="0 0 392.599 392.599" style="enable-background:new 0 0 392.599 392.599;" xml:space="preserve">
<path style="fill:#FFFFFF;" d="M246.82,232.654l49.196,20.04c8.469-12.929,14.739-26.893,18.877-41.568
	c0.259,0.129,0.453,0.259,0.646,0.388c3.62-12.8,5.56-26.44,5.56-40.404c0-82.812-67.168-149.98-149.98-149.98
	S21.075,88.234,21.075,171.046s67.168,149.98,149.98,149.98c19.394,0,37.947-3.685,54.949-10.408
	c-0.259-0.065-0.517-0.259-0.776-0.323c9.503-3.685,18.618-8.404,27.281-14.093l-20.105-49.325
	c-1.616-4.073-0.711-8.727,2.392-11.895C238.093,231.878,242.812,230.909,246.82,232.654z"/>
<path style="fill:#56ACE0;" d="M171.184,43.628c-58.311,0-107.572,39.434-122.634,92.962h40.339c6.012,0,10.99,4.848,10.99,10.99
	c0,6.012-4.848,10.99-10.99,10.99H44.412c-0.388,4.073-0.646,8.275-0.646,12.541c0,5.172,0.323,10.214,0.905,15.192h15.838
	c6.012,0,10.99,4.848,10.99,10.99c0,6.077-4.848,10.99-10.99,10.99H49.325c15.903,52.234,64.517,90.311,121.859,90.311
	c27.41,0,53.527-8.598,75.507-24.76l27.152-27.152c16.226-21.915,24.76-48.032,24.76-75.507
	C298.602,100.84,241.39,43.628,171.184,43.628z"/>
<path style="fill:#194F82;" d="M171.184,105.753c15.063,0,27.345,12.283,27.345,27.345c0,6.012,4.848,10.99,10.99,10.99
	c6.141,0,10.99-4.848,10.99-10.99c0-23.337-16.356-42.99-38.271-47.903V71.62c0-6.012-4.848-10.99-10.99-10.99
	s-10.99,4.848-10.99,10.99v13.576c-21.851,5.042-38.271,24.566-38.271,47.903c0,27.152,22.109,49.196,49.196,49.196
	c0.646,0,1.228-0.065,1.875-0.129c14.222,0.905,25.471,12.8,25.471,27.281c0,15.063-12.283,27.345-27.345,27.345
	s-27.281-12.283-27.281-27.345c0-6.012-4.848-10.99-10.99-10.99c-6.012,0-10.99,4.848-10.99,10.99
	c0,23.337,16.356,42.99,38.271,47.903v13.511c0,6.012,4.848,10.99,10.99,10.99c6.141,0,10.99-4.848,10.99-10.99v-13.511
	c21.85-5.042,38.271-24.566,38.271-47.903c0-27.152-22.109-49.196-49.196-49.196c-0.646,0-1.228,0.065-1.875,0.129
	c-14.222-0.905-25.471-12.8-25.471-27.281C143.903,118.036,156.057,105.753,171.184,105.753z"/>
<path style="fill:#FFC10D;" d="M262.659,262.715l35.168,86.303l10.279-33.616c1.099-3.491,3.814-6.206,7.24-7.24l33.616-10.279
	L262.659,262.715z"/>
<path style="fill:#194F82;" d="M385.745,289.22l-68.978-28.057c16.679-26.958,25.6-57.729,25.6-89.859
	c0-94.448-76.735-171.248-171.184-171.248C76.8,0.056,0,76.856,0,171.24c0,94.449,76.8,171.184,171.184,171.184
	c32.129,0,62.966-8.792,89.923-25.471l28.057,68.784c3.168,7.499,10.408,6.788,10.667,6.788c4.655-0.259,8.663-3.297,9.956-7.758
	l13.964-45.64l27.216,27.216c4.267,4.267,11.184,4.267,15.451,0c4.267-4.267,4.267-11.184,0-15.451L339.2,323.676l45.64-13.964
	c4.396-1.422,7.499-5.301,7.758-9.956C392.663,295.167,390.012,290.901,385.745,289.22z M232.598,246.876l20.105,49.325
	c-8.663,5.624-40.986,24.824-81.519,24.824c-82.812,0-149.98-67.168-149.98-149.98s67.168-149.98,149.98-149.98
	s149.98,67.168,149.98,149.98c0,13.964-6.723,62.19-25.018,81.584l-49.325-19.911c-4.073-1.616-8.727-0.711-11.895,2.392
	C231.887,238.149,230.853,242.868,232.598,246.876z M315.345,308.161c-3.491,1.099-6.206,3.814-7.24,7.24l-10.279,33.616
	l-35.168-86.303l86.303,35.168L315.345,308.161z"/>
<g>
</g>
<g>
</g>
<g>
</g>
<g>
</g>
<g>
</g>
<g>
</g>
<g>
</g>
<g>
</g>
<g>
</g>
<g>
</g>
<g>
</g>
<g>
</g>
<g>
</g>
<g>
</g>
<g>
</g>
</svg>
