<?xml version="1.0" standalone="no"?>
<!DOCTYPE svg PUBLIC "-//W3C//DTD SVG 20010904//EN"
 "http://www.w3.org/TR/2001/REC-SVG-20010904/DTD/svg10.dtd">
<svg version="1.0" xmlns="http://www.w3.org/2000/svg"
 width="500.000000pt" height="500.000000pt" viewBox="0 0 500.000000 500.000000"
 preserveAspectRatio="xMidYMid meet">

<g transform="translate(0.000000,500.000000) scale(0.100000,-0.100000)"
fill="#000000" stroke="none">
<path d="M2762 4150 c-112 -30 -207 -85 -287 -165 -133 -133 -155 -210 -155
-532 l0 -233 -172 -2 -173 -3 -3 -197 -2 -198 -240 0 c-236 0 -239 0 -254 -22
-14 -20 -16 -129 -16 -975 0 -940 0 -953 20 -973 20 -20 33 -20 980 -20 947 0
960 0 980 20 20 20 20 33 20 973 0 846 -2 955 -16 975 -15 21 -21 22 -192 23
-138 0 -172 3 -152 11 103 46 137 65 190 105 74 56 141 141 185 236 48 104 58
170 53 348 -4 134 -8 163 -30 227 -66 183 -210 327 -390 389 -103 35 -246 41
-346 13z m292 -36 c197 -51 362 -214 422 -419 27 -92 23 -229 -10 -330 -59
-183 -203 -327 -386 -387 -55 -18 -99 -22 -280 -27 l-215 -6 -3 -62 -3 -63
-109 0 -109 0 -3 63 -3 62 -175 5 -175 5 0 110 0 110 175 5 175 5 5 275 c5
255 7 279 28 330 64 158 204 276 383 324 72 20 207 20 283 0z m-734 -1584 c0
-121 -3 -160 -12 -160 -7 0 -33 14 -57 30 l-44 30 -184 0 c-182 0 -184 0 -208
-25 l-25 -24 0 -549 c0 -541 0 -550 21 -576 l20 -26 195 0 c181 0 195 1 214
20 19 19 20 33 20 265 l0 246 87 -66 c56 -43 95 -65 113 -65 18 0 57 22 113
65 l87 66 0 -246 c0 -232 1 -246 20 -265 19 -19 33 -20 214 -20 l195 0 20 26
c21 26 21 35 21 576 l0 549 -25 24 c-24 25 -26 25 -208 25 -176 0 -186 -1
-218 -23 -19 -13 -40 -26 -46 -31 -10 -6 -13 28 -13 153 l0 161 355 0 355 0 0
-865 0 -865 -870 0 -870 0 0 865 0 865 365 0 365 0 0 -160z m260 -18 l0 -178
-50 -37 c-28 -21 -57 -40 -65 -43 -8 -3 -37 11 -65 33 -37 28 -49 43 -45 58 3
11 5 93 5 183 l0 162 110 0 110 0 0 -178z m-430 -248 c0 -33 297 -454 320
-454 22 1 320 423 320 454 l0 26 100 0 100 0 0 -465 0 -465 -100 0 -100 0 0
284 c0 283 0 285 -22 300 -12 9 -32 16 -43 16 -12 0 -76 -41 -143 -91 l-122
-91 -122 91 c-67 50 -131 91 -143 91 -11 0 -31 -7 -43 -16 -22 -15 -22 -17
-22 -300 l0 -284 -100 0 -100 0 0 465 0 465 110 0 110 0 0 -26z m483 -67 c-22
-37 -159 -226 -163 -227 -5 0 -123 162 -145 200 -5 8 13 -2 40 -23 92 -70 99
-69 205 12 71 55 75 57 63 38z"/>
<path d="M2831 3894 c-76 -20 -147 -62 -187 -108 -57 -67 -65 -111 -62 -372
l3 -229 205 0 c201 0 206 1 262 27 79 37 142 98 181 177 29 60 32 74 32 156
-1 71 -5 100 -23 139 -48 106 -137 182 -247 211 -71 18 -94 18 -164 -1z m205
-163 c85 -38 166 -135 188 -223 9 -39 -27 -127 -73 -180 -22 -24 -63 -57 -92
-73 -54 -30 -55 -30 -246 -33 l-193 -4 0 169 c0 196 8 223 85 291 91 80 222
101 331 53z"/>
</g>
</svg>
