<?xml version="1.0" encoding="iso-8859-1"?>
<!-- Generator: Adobe Illustrator 19.0.0, SVG Export Plug-In . SVG Version: 6.00 Build 0)  -->
<svg version="1.1" id="Layer_1" xmlns="http://www.w3.org/2000/svg" xmlns:xlink="http://www.w3.org/1999/xlink" x="0px" y="0px"
	 viewBox="0 0 512 512" style="enable-background:new 0 0 512 512;" xml:space="preserve">
<g>
	<circle style="fill:#A0EBFF;" cx="256" cy="256" r="256"/>
	<rect x="136.463" y="122.849" style="fill:#71C6DE;" width="239.068" height="286.976"/>
	<polygon style="fill:#FFFFFF;" points="309.494,395.346 150.989,395.346 150.989,122.849 362.45,122.849 362.45,339.364 	"/>
	<polygon style="fill:#B6F0FF;" points="309.489,342.38 362.45,342.38 309.489,395.346 	"/>
	<polygon style="fill:#48AFCC;" points="347.653,380.549 362.45,342.38 309.489,395.346 	"/>
	<path style="fill:#FC611F;" d="M294.461,108.14c0-20.844-16.896-37.74-37.74-37.74s-37.745,16.896-37.745,37.74h-27.013v44.242
		h128.067V108.14C320.031,108.14,294.461,108.14,294.461,108.14z M211.564,137.349c-3.968,0-7.188-3.22-7.188-7.188
		s3.22-7.188,7.188-7.188c3.968,0,7.188,3.22,7.188,7.188S215.537,137.349,211.564,137.349z M240.609,108.14
		c0-8.883,7.224-16.108,16.108-16.108s16.108,7.224,16.108,16.108H240.609z M300.984,137.349c-3.968,0-7.188-3.22-7.188-7.188
		s3.22-7.188,7.188-7.188c3.968,0,7.188,3.22,7.188,7.188S304.957,137.349,300.984,137.349z"/>
	<path style="fill:#B6F0FF;" d="M174.438,178.944v6.748h163.123v-6.748H174.438z M174.438,204.687h163.123v-6.748H174.438V204.687z
		 M174.438,223.683h163.123v-6.748H174.438V223.683z M174.438,242.678h163.123v-6.748H174.438V242.678z M174.438,261.673h163.123
		v-6.748H174.438V261.673z M174.438,280.668h163.123v-6.748H174.438V280.668z M174.438,299.663h163.123v-6.748H174.438V299.663z
		 M174.438,318.659h163.123v-6.748H174.438V318.659z"/>
	<path style="fill:#E34E10;" d="M294.461,108.14c0-20.844-16.896-37.74-37.74-37.74L256,70.472v21.632l0.722-0.072
		c8.883,0,16.108,7.224,16.108,16.108H256v44.242h64.036V108.14C320.036,108.14,294.461,108.14,294.461,108.14z M300.984,137.349
		c-3.968,0-7.188-3.22-7.188-7.188s3.22-7.188,7.188-7.188c3.968,0,7.188,3.22,7.188,7.188S304.957,137.349,300.984,137.349z"/>
</g>
<g>
</g>
<g>
</g>
<g>
</g>
<g>
</g>
<g>
</g>
<g>
</g>
<g>
</g>
<g>
</g>
<g>
</g>
<g>
</g>
<g>
</g>
<g>
</g>
<g>
</g>
<g>
</g>
<g>
</g>
</svg>
