<?xml version="1.0" encoding="iso-8859-1"?>
<!-- Generator: Adobe Illustrator 19.0.0, SVG Export Plug-In . SVG Version: 6.00 Build 0)  -->
<svg version="1.1" id="Layer_1" xmlns="http://www.w3.org/2000/svg" xmlns:xlink="http://www.w3.org/1999/xlink" x="0px" y="0px"
	 viewBox="0 0 512 512" style="enable-background:new 0 0 512 512;" xml:space="preserve">
<rect x="3.608" y="108.62" width="504.717" height="357.956"/>
<path style="fill:#6B6B6B;" d="M505.833,119.836v344.336H6.184V119.836H505.833 M512,113.66H0v356.72h512V113.66z"/>
<path style="fill:#DBDBDB;" d="M0,121.348V57.62c0.031-8.824,7.177-15.969,16-16h480c8.824,0.031,15.969,7.177,16,16v63.728H0z"/>
<polygon style="fill:#E21B1B;" points="471.64,103.484 171.536,103.484 200.249,59.484 471.64,59.484 "/>
<circle cx="53.899" cy="80.88" r="13.608"/>
<circle cx="89.972" cy="80.88" r="13.608"/>
<circle cx="126.055" cy="80.88" r="13.608"/>
<g>
	<path style="fill:#FFFFFF;" d="M215.648,73.196l1.912,8.328c0.408,1.952,0.8,3.952,1.176,5.944h0.072c0.368-2,0.976-4,1.504-5.912
		l2.4-8.369h3.776l2.296,8.128c0.567,2.144,1.064,4.144,1.472,6.144h0.072c0.296-2,0.728-4,1.208-6.144l2.031-8.128h4.552
		l-5.776,18.336h-4.344l-2.184-7.456c-0.574-1.929-1.039-3.89-1.392-5.872h-0.072c-0.344,1.984-0.808,3.945-1.392,5.872
		l-2.336,7.456h-4.328l-5.416-18.336L215.648,73.196z"/>
	<path style="fill:#FFFFFF;" d="M244.409,73.196l1.928,8.328c0.408,1.952,0.8,3.952,1.16,5.944h0.088c0.368-2,0.976-4,1.504-5.912
		l2.4-8.369h3.76l2.304,8.128c0.567,2.144,1.048,4.144,1.472,6.144h0.072c0.296-2,0.712-4,1.208-6.144l2.031-8.128h4.552
		l-5.76,18.336H256.8l-2.184-7.456c-0.569-1.931-1.033-3.891-1.392-5.872h-0.072c-0.341,1.984-0.803,3.945-1.384,5.872l-2.336,7.456
		h-4.344l-5.416-18.336L244.409,73.196z"/>
	<path style="fill:#FFFFFF;" d="M273.184,73.196l1.912,8.328c0.408,1.952,0.799,3.952,1.176,5.944h0.072
		c0.368-2,0.976-4,1.504-5.912l2.4-8.369h3.752l2.296,8.128c0.567,2.144,1.064,4.144,1.472,6.144h0.072c0.296-2,0.728-4,1.208-6.144
		l2.033-8.128h4.552l-5.76,18.336H285.6l-2.184-7.456c-0.574-1.929-1.039-3.89-1.392-5.872h-0.104
		c-0.344,1.984-0.808,3.945-1.392,5.872l-2.336,7.456h-4.328l-5.416-18.336L273.184,73.196z"/>
	<path style="fill:#FFFFFF;" d="M296.344,88.972c-0.084-1.558,1.111-2.888,2.668-2.972c0.06-0.003,0.12-0.004,0.18-0.004
		c1.641,0.085,2.903,1.485,2.817,3.126c-0.079,1.522-1.295,2.739-2.817,2.817c-1.551,0.024-2.828-1.212-2.852-2.763
		C296.339,89.109,296.34,89.04,296.344,88.972z"/>
</g>
<polygon style="fill:#666666;" points="378.888,470.34 133.12,470.34 167.144,444.484 344.872,444.484 "/>
<g>
	<polygon style="fill:#FFFFFF;" points="440.376,94.477 437.512,91.692 447.408,81.524 436.921,71.308 439.704,68.444 
		453.056,81.444 	"/>
	<rect x="421.633" y="79.487" style="fill:#FFFFFF;" width="26.411" height="4"/>
</g>
<circle style="fill:#E21B1B;" cx="256.003" cy="297.212" r="120.001"/>
<path style="fill:#FFFFFF;" d="M248.145,368.42v-17.04c-9.992-0.115-19.788-2.777-28.464-7.736l4.744-16.504
	c8.307,4.919,17.755,7.584,27.408,7.728c11.064,0,18.616-5.448,18.616-13.872c0-7.904-6.152-13-19.152-17.744
	c-18.448-6.672-30.401-15.112-30.401-31.448c0-15.104,10.545-26.696,28.28-29.856v-17.224h14.4v16.336
	c8.412,0.096,16.696,2.078,24.24,5.8l-4.744,16.169c-7.374-3.863-15.564-5.909-23.888-5.968c-12.296,0-16.689,6.32-16.689,12.288
	c0,7.2,6.32,11.24,21.256,17.216c19.672,7.376,28.456,16.856,28.456,32.504c-0.338,16.524-13.204,30.074-29.687,31.264v18.096
	L248.145,368.42z"/>
<g>
</g>
<g>
</g>
<g>
</g>
<g>
</g>
<g>
</g>
<g>
</g>
<g>
</g>
<g>
</g>
<g>
</g>
<g>
</g>
<g>
</g>
<g>
</g>
<g>
</g>
<g>
</g>
<g>
</g>
</svg>
