<?xml version="1.0" encoding="iso-8859-1"?>
<!-- Generator: Adobe Illustrator 19.0.0, SVG Export Plug-In . SVG Version: 6.00 Build 0)  -->
<svg version="1.1" id="Layer_1" xmlns="http://www.w3.org/2000/svg" xmlns:xlink="http://www.w3.org/1999/xlink" x="0px" y="0px"
	 viewBox="0 0 512.001 512.001" style="enable-background:new 0 0 512.001 512.001;" xml:space="preserve">
<path style="fill:#FFFFFF;" d="M256,508C116.825,508,4,395.175,4,255.999S116.825,4,256,4S508,116.825,508,256
	C507.842,395.111,395.111,507.842,256,508z"/>
<path style="fill:#CCCCCC;" d="M256,8c136.966,0,248,111.034,248,248S392.967,504,256,504S8,392.967,8,256
	C8.154,119.097,119.097,8.154,256,8 M256,0C114.615,0,0,114.615,0,256s114.615,256,256,256s256-114.615,256-256S397.385,0,256,0z"/>
<path d="M64,353.176V120.672c0.105-4.229,3.602-7.58,7.832-7.504H440.16c4.229-0.076,7.727,3.276,7.832,7.504v226.304
	c0,3.42-2.772,6.192-6.192,6.192H64V353.176z"/>
<path style="fill:#2D2D2D;" d="M448,353.176v32c0.031,4.365-3.467,7.939-7.832,8H71.832c-4.365-0.062-7.863-3.634-7.832-8v-25.808
	c0-3.42,2.772-6.192,6.192-6.192H448z"/>
<path style="fill:#C9C9C9;" d="M207.137,449.176h97.728c3.42-0.001,6.191-2.775,6.19-6.195c0-0.291-0.021-0.582-0.062-0.87
	l-6.232-43.624c-0.437-3.048-3.048-5.312-6.128-5.312h-85.264c-3.079,0.001-5.69,2.263-6.128,5.312l-6.232,43.624
	c-0.481,3.386,1.873,6.52,5.258,7.002C206.555,449.156,206.846,449.176,207.137,449.176z"/>
<path style="fill:#AAAAAA;" d="M298.632,393.176h-85.264c-3.079,0.001-5.69,2.263-6.128,5.312l-2.976,20.8
	c-0.481,3.386,1.874,6.52,5.259,7.001c0.717,0.102,1.448,0.077,2.157-0.074l88.528-18.816c3.167-0.696,5.261-3.718,4.8-6.928
	l-0.288-2.008C304.274,395.44,301.688,393.195,298.632,393.176z"/>
<rect x="171.999" y="449.179" style="fill:#2D2D2D;" width="168.004" height="8"/>
<path style="fill:#939393;" d="M207.24,398.488c0.437-3.048,3.048-5.312,6.128-5.312H304l0.544,3.784l-90.904,12.545
	c-3.388,0.467-6.512-1.9-6.98-5.288c-0.079-0.571-0.078-1.15,0.004-1.72L207.24,398.488z"/>
<g>
	<path style="fill:#999999;" d="M256,58.984L138.784,137.6h234.44L256,58.984z M256,116.992c-7.149,0-12.944-5.795-12.944-12.944
		c0-7.149,5.795-12.944,12.944-12.944s12.944,5.795,12.944,12.944l0,0C268.944,111.197,263.149,116.992,256,116.992z"/>
	<rect x="129.988" y="278.316" style="fill:#999999;" width="252.026" height="24.56"/>
</g>
<path style="fill:#E21B1B;" d="M252.44,247.56v-10.064c-5.395-0.019-10.678-1.54-15.256-4.392l2.4-6.688
	c4.287,2.785,9.287,4.275,14.4,4.288c7.08,0,11.872-4.088,11.872-9.776c0-5.488-3.888-8.872-11.272-11.872
	c-10.168-4-16.448-8.576-16.448-17.248c0.127-8.439,6.651-15.397,15.064-16.064v-10.056h6.176v9.672
	c4.551,0.037,9.016,1.24,12.968,3.496l-2.504,6.584c-3.796-2.262-8.141-3.436-12.56-3.392c-7.688,0-10.576,4.584-10.576,8.576
	c0,5.184,3.696,7.784,12.368,11.368c10.272,4.192,15.456,9.376,15.456,18.256c-0.159,8.845-6.95,16.154-15.76,16.96v10.4h-6.28
	L252.44,247.56z"/>
<g>
	<rect x="155.74" y="159.078" style="fill:#FFFFFF;" width="24.56" height="96.544"/>
	<rect x="193.796" y="159.078" style="fill:#FFFFFF;" width="24.56" height="96.544"/>
	<rect x="293.638" y="159.078" style="fill:#FFFFFF;" width="24.56" height="96.544"/>
	<rect x="331.714" y="159.078" style="fill:#FFFFFF;" width="24.56" height="96.544"/>
</g>
<g>
</g>
<g>
</g>
<g>
</g>
<g>
</g>
<g>
</g>
<g>
</g>
<g>
</g>
<g>
</g>
<g>
</g>
<g>
</g>
<g>
</g>
<g>
</g>
<g>
</g>
<g>
</g>
<g>
</g>
</svg>
